<mxfile host="app.diagrams.net" modified="2023-10-24T01:15:22.726Z" agent="Mozilla/5.0 (Windows NT 10.0; Win64; x64) AppleWebKit/537.36 (KHTML, like Gecko) Chrome/118.0.0.0 Safari/537.36" etag="mVvkAKI9knOojFqcmSsJ" version="22.0.6" type="onedrive">
  <diagram name="第 1 页" id="H5lwwSl2DAc519c5JavO">
    <mxGraphModel grid="1" page="0" gridSize="10" guides="1" tooltips="1" connect="1" arrows="1" fold="1" pageScale="1" pageWidth="827" pageHeight="1169" math="0" shadow="0">
      <root>
        <mxCell id="0" />
        <mxCell id="1" parent="0" />
        <mxCell id="7-WOVS_3ObqrZkdHOqHh-1" value="ta" style="whiteSpace=wrap;html=1;align=center;fontSize=16;" vertex="1" parent="1">
          <mxGeometry x="-360" y="-102" width="100" height="40" as="geometry" />
        </mxCell>
        <mxCell id="7-WOVS_3ObqrZkdHOqHh-2" value="tauserid" style="ellipse;whiteSpace=wrap;html=1;align=center;fontStyle=4;fontSize=16;" vertex="1" parent="1">
          <mxGeometry x="-560" y="-110" width="100" height="40" as="geometry" />
        </mxCell>
        <mxCell id="7-WOVS_3ObqrZkdHOqHh-3" value="firstname" style="ellipse;whiteSpace=wrap;html=1;align=center;fontSize=16;" vertex="1" parent="1">
          <mxGeometry x="-560" y="40" width="100" height="40" as="geometry" />
        </mxCell>
        <mxCell id="7-WOVS_3ObqrZkdHOqHh-4" value="lastname" style="ellipse;whiteSpace=wrap;html=1;align=center;fontSize=16;" vertex="1" parent="1">
          <mxGeometry x="-560" y="-10" width="100" height="40" as="geometry" />
        </mxCell>
        <mxCell id="7-WOVS_3ObqrZkdHOqHh-5" value="studentnum" style="ellipse;whiteSpace=wrap;html=1;align=center;fontSize=16;" vertex="1" parent="1">
          <mxGeometry x="-560" y="-62" width="100" height="40" as="geometry" />
        </mxCell>
        <mxCell id="7-WOVS_3ObqrZkdHOqHh-8" value="image" style="ellipse;whiteSpace=wrap;html=1;align=center;fontSize=16;" vertex="1" parent="1">
          <mxGeometry x="-560" y="-210" width="100" height="40" as="geometry" />
        </mxCell>
        <mxCell id="7-WOVS_3ObqrZkdHOqHh-10" style="edgeStyle=none;curved=1;rounded=0;orthogonalLoop=1;jettySize=auto;html=1;fontSize=12;startSize=8;endSize=8;endArrow=none;endFill=0;" edge="1" parent="1" source="7-WOVS_3ObqrZkdHOqHh-1" target="7-WOVS_3ObqrZkdHOqHh-8">
          <mxGeometry relative="1" as="geometry" />
        </mxCell>
        <mxCell id="7-WOVS_3ObqrZkdHOqHh-13" style="edgeStyle=none;curved=1;rounded=0;orthogonalLoop=1;jettySize=auto;html=1;fontSize=12;startSize=8;endSize=8;endArrow=none;endFill=0;" edge="1" parent="1" source="7-WOVS_3ObqrZkdHOqHh-1" target="hPMHq9-No1u515r_1J-B-1">
          <mxGeometry relative="1" as="geometry">
            <mxPoint x="-300" y="-92" as="sourcePoint" />
            <mxPoint x="-469.5194778302807" y="-128.2606485707813" as="targetPoint" />
          </mxGeometry>
        </mxCell>
        <mxCell id="7-WOVS_3ObqrZkdHOqHh-14" style="edgeStyle=none;curved=1;rounded=0;orthogonalLoop=1;jettySize=auto;html=1;fontSize=12;startSize=8;endSize=8;endArrow=none;endFill=0;" edge="1" parent="1" source="7-WOVS_3ObqrZkdHOqHh-1" target="7-WOVS_3ObqrZkdHOqHh-2">
          <mxGeometry relative="1" as="geometry">
            <mxPoint x="-290" y="-82" as="sourcePoint" />
            <mxPoint x="-444" y="-161" as="targetPoint" />
          </mxGeometry>
        </mxCell>
        <mxCell id="7-WOVS_3ObqrZkdHOqHh-15" style="edgeStyle=none;curved=1;rounded=0;orthogonalLoop=1;jettySize=auto;html=1;fontSize=12;startSize=8;endSize=8;endArrow=none;endFill=0;" edge="1" parent="1" source="7-WOVS_3ObqrZkdHOqHh-1" target="7-WOVS_3ObqrZkdHOqHh-5">
          <mxGeometry relative="1" as="geometry">
            <mxPoint x="-280" y="-72" as="sourcePoint" />
            <mxPoint x="-434" y="-151" as="targetPoint" />
          </mxGeometry>
        </mxCell>
        <mxCell id="7-WOVS_3ObqrZkdHOqHh-16" style="edgeStyle=none;curved=1;rounded=0;orthogonalLoop=1;jettySize=auto;html=1;fontSize=12;startSize=8;endSize=8;endArrow=none;endFill=0;" edge="1" parent="1" source="7-WOVS_3ObqrZkdHOqHh-1" target="7-WOVS_3ObqrZkdHOqHh-4">
          <mxGeometry relative="1" as="geometry">
            <mxPoint x="-270" y="-62" as="sourcePoint" />
            <mxPoint x="-424" y="-141" as="targetPoint" />
          </mxGeometry>
        </mxCell>
        <mxCell id="7-WOVS_3ObqrZkdHOqHh-17" style="edgeStyle=none;curved=1;rounded=0;orthogonalLoop=1;jettySize=auto;html=1;fontSize=12;startSize=8;endSize=8;endArrow=none;endFill=0;" edge="1" parent="1" source="7-WOVS_3ObqrZkdHOqHh-1" target="7-WOVS_3ObqrZkdHOqHh-3">
          <mxGeometry relative="1" as="geometry">
            <mxPoint x="-260" y="-52" as="sourcePoint" />
            <mxPoint x="-414" y="-131" as="targetPoint" />
          </mxGeometry>
        </mxCell>
        <mxCell id="7-WOVS_3ObqrZkdHOqHh-18" value="course" style="whiteSpace=wrap;html=1;align=center;fontSize=16;" vertex="1" parent="1">
          <mxGeometry y="-102" width="100" height="40" as="geometry" />
        </mxCell>
        <mxCell id="7-WOVS_3ObqrZkdHOqHh-19" value="coursenum" style="ellipse;whiteSpace=wrap;html=1;align=center;fontStyle=4;fontSize=16;" vertex="1" parent="1">
          <mxGeometry x="200" y="-184" width="100" height="40" as="geometry" />
        </mxCell>
        <mxCell id="7-WOVS_3ObqrZkdHOqHh-20" value="coursename" style="ellipse;whiteSpace=wrap;html=1;align=center;fontSize=16;" vertex="1" parent="1">
          <mxGeometry x="200" y="-134" width="100" height="40" as="geometry" />
        </mxCell>
        <mxCell id="7-WOVS_3ObqrZkdHOqHh-21" value="level" style="ellipse;whiteSpace=wrap;html=1;align=center;fontSize=16;" vertex="1" parent="1">
          <mxGeometry x="200" y="-84" width="100" height="40" as="geometry" />
        </mxCell>
        <mxCell id="7-WOVS_3ObqrZkdHOqHh-23" value="year" style="ellipse;whiteSpace=wrap;html=1;align=center;fontSize=16;" vertex="1" parent="1">
          <mxGeometry x="200" y="-36" width="100" height="40" as="geometry" />
        </mxCell>
        <mxCell id="7-WOVS_3ObqrZkdHOqHh-24" style="edgeStyle=none;curved=1;rounded=0;orthogonalLoop=1;jettySize=auto;html=1;fontSize=12;startSize=8;endSize=8;endArrow=none;endFill=0;" edge="1" parent="1" source="7-WOVS_3ObqrZkdHOqHh-20" target="7-WOVS_3ObqrZkdHOqHh-18">
          <mxGeometry relative="1" as="geometry">
            <mxPoint x="74" y="169" as="sourcePoint" />
            <mxPoint x="-80" y="90" as="targetPoint" />
          </mxGeometry>
        </mxCell>
        <mxCell id="7-WOVS_3ObqrZkdHOqHh-25" style="edgeStyle=none;curved=1;rounded=0;orthogonalLoop=1;jettySize=auto;html=1;fontSize=12;startSize=8;endSize=8;endArrow=none;endFill=0;" edge="1" parent="1" source="7-WOVS_3ObqrZkdHOqHh-19" target="7-WOVS_3ObqrZkdHOqHh-18">
          <mxGeometry relative="1" as="geometry">
            <mxPoint x="84" y="179" as="sourcePoint" />
            <mxPoint x="-70" y="100" as="targetPoint" />
          </mxGeometry>
        </mxCell>
        <mxCell id="7-WOVS_3ObqrZkdHOqHh-26" style="edgeStyle=none;curved=1;rounded=0;orthogonalLoop=1;jettySize=auto;html=1;fontSize=12;startSize=8;endSize=8;endArrow=none;endFill=0;" edge="1" parent="1" source="7-WOVS_3ObqrZkdHOqHh-21" target="7-WOVS_3ObqrZkdHOqHh-18">
          <mxGeometry relative="1" as="geometry">
            <mxPoint x="94" y="189" as="sourcePoint" />
            <mxPoint x="-60" y="110" as="targetPoint" />
          </mxGeometry>
        </mxCell>
        <mxCell id="7-WOVS_3ObqrZkdHOqHh-27" style="edgeStyle=none;curved=1;rounded=0;orthogonalLoop=1;jettySize=auto;html=1;fontSize=12;startSize=8;endSize=8;endArrow=none;endFill=0;" edge="1" parent="1" source="7-WOVS_3ObqrZkdHOqHh-23" target="7-WOVS_3ObqrZkdHOqHh-18">
          <mxGeometry relative="1" as="geometry">
            <mxPoint x="104" y="199" as="sourcePoint" />
            <mxPoint x="-50" y="120" as="targetPoint" />
          </mxGeometry>
        </mxCell>
        <mxCell id="7-WOVS_3ObqrZkdHOqHh-29" value="&lt;u&gt;coid&lt;/u&gt;" style="ellipse;whiteSpace=wrap;html=1;align=center;fontSize=16;" vertex="1" parent="1">
          <mxGeometry x="-360" y="350" width="100" height="40" as="geometry" />
        </mxCell>
        <mxCell id="7-WOVS_3ObqrZkdHOqHh-30" value="numstudent" style="ellipse;whiteSpace=wrap;html=1;align=center;fontSize=16;" vertex="1" parent="1">
          <mxGeometry x="-240" y="350" width="100" height="40" as="geometry" />
        </mxCell>
        <mxCell id="7-WOVS_3ObqrZkdHOqHh-31" value="term" style="ellipse;whiteSpace=wrap;html=1;align=center;fontSize=16;" vertex="1" parent="1">
          <mxGeometry x="-120" y="350" width="100" height="40" as="geometry" />
        </mxCell>
        <mxCell id="7-WOVS_3ObqrZkdHOqHh-32" value="year" style="ellipse;whiteSpace=wrap;html=1;align=center;fontSize=16;" vertex="1" parent="1">
          <mxGeometry y="350" width="100" height="40" as="geometry" />
        </mxCell>
        <mxCell id="7-WOVS_3ObqrZkdHOqHh-33" style="edgeStyle=none;curved=1;rounded=0;orthogonalLoop=1;jettySize=auto;html=1;fontSize=12;startSize=8;endSize=8;endArrow=none;endFill=0;" edge="1" parent="1" source="4-Pj_LEMFywbRyHF_7YG-1" target="7-WOVS_3ObqrZkdHOqHh-29">
          <mxGeometry relative="1" as="geometry">
            <mxPoint x="-175" y="310" as="sourcePoint" />
            <mxPoint x="-40" y="200" as="targetPoint" />
          </mxGeometry>
        </mxCell>
        <mxCell id="7-WOVS_3ObqrZkdHOqHh-34" style="edgeStyle=none;curved=1;rounded=0;orthogonalLoop=1;jettySize=auto;html=1;fontSize=12;startSize=8;endSize=8;endArrow=none;endFill=0;" edge="1" parent="1" source="4-Pj_LEMFywbRyHF_7YG-1" target="7-WOVS_3ObqrZkdHOqHh-30">
          <mxGeometry relative="1" as="geometry">
            <mxPoint x="-145" y="310" as="sourcePoint" />
            <mxPoint x="-30" y="210" as="targetPoint" />
          </mxGeometry>
        </mxCell>
        <mxCell id="7-WOVS_3ObqrZkdHOqHh-35" style="edgeStyle=none;curved=1;rounded=0;orthogonalLoop=1;jettySize=auto;html=1;fontSize=12;startSize=8;endSize=8;endArrow=none;endFill=0;" edge="1" parent="1" source="4-Pj_LEMFywbRyHF_7YG-1" target="7-WOVS_3ObqrZkdHOqHh-31">
          <mxGeometry relative="1" as="geometry">
            <mxPoint x="-115" y="310" as="sourcePoint" />
            <mxPoint x="-20" y="220" as="targetPoint" />
          </mxGeometry>
        </mxCell>
        <mxCell id="7-WOVS_3ObqrZkdHOqHh-36" style="edgeStyle=none;curved=1;rounded=0;orthogonalLoop=1;jettySize=auto;html=1;fontSize=12;startSize=8;endSize=8;endArrow=none;endFill=0;" edge="1" parent="1" source="4-Pj_LEMFywbRyHF_7YG-1" target="7-WOVS_3ObqrZkdHOqHh-32">
          <mxGeometry relative="1" as="geometry">
            <mxPoint x="-85" y="310" as="sourcePoint" />
            <mxPoint x="-10" y="230" as="targetPoint" />
          </mxGeometry>
        </mxCell>
        <mxCell id="7-WOVS_3ObqrZkdHOqHh-37" value="hasworkedon" style="shape=rhombus;perimeter=rhombusPerimeter;whiteSpace=wrap;html=1;align=center;fontSize=16;" vertex="1" parent="1">
          <mxGeometry x="-290" y="80" width="120" height="60" as="geometry" />
        </mxCell>
        <mxCell id="7-WOVS_3ObqrZkdHOqHh-39" style="edgeStyle=none;curved=1;rounded=0;orthogonalLoop=1;jettySize=auto;html=1;fontSize=12;startSize=8;endSize=8;endArrow=none;endFill=0;" edge="1" parent="1" source="B9fhIFzvkDU5wFezqFZm-22" target="7-WOVS_3ObqrZkdHOqHh-37">
          <mxGeometry relative="1" as="geometry">
            <mxPoint x="-142" y="270" as="sourcePoint" />
            <mxPoint x="10" y="180" as="targetPoint" />
          </mxGeometry>
        </mxCell>
        <mxCell id="7-WOVS_3ObqrZkdHOqHh-40" value="hour" style="ellipse;whiteSpace=wrap;html=1;align=center;fontSize=16;" vertex="1" parent="1">
          <mxGeometry x="-420" y="90" width="100" height="40" as="geometry" />
        </mxCell>
        <mxCell id="7-WOVS_3ObqrZkdHOqHh-41" style="edgeStyle=none;curved=1;rounded=0;orthogonalLoop=1;jettySize=auto;html=1;fontSize=12;startSize=8;endSize=8;endArrow=none;endFill=0;" edge="1" parent="1" source="7-WOVS_3ObqrZkdHOqHh-37" target="7-WOVS_3ObqrZkdHOqHh-40">
          <mxGeometry relative="1" as="geometry">
            <mxPoint x="164" y="239" as="sourcePoint" />
            <mxPoint x="10" y="160" as="targetPoint" />
          </mxGeometry>
        </mxCell>
        <mxCell id="7-WOVS_3ObqrZkdHOqHh-44" style="edgeStyle=none;curved=1;rounded=0;orthogonalLoop=1;jettySize=auto;html=1;fontSize=12;startSize=8;endSize=8;endArrow=none;endFill=0;" edge="1" parent="1" source="B9fhIFzvkDU5wFezqFZm-26" target="B9fhIFzvkDU5wFezqFZm-1">
          <mxGeometry relative="1" as="geometry">
            <mxPoint x="194" y="289" as="sourcePoint" />
            <mxPoint x="-38.970588235294144" y="115.51470588235293" as="targetPoint" />
          </mxGeometry>
        </mxCell>
        <mxCell id="7-WOVS_3ObqrZkdHOqHh-45" value="loves" style="shape=rhombus;perimeter=rhombusPerimeter;whiteSpace=wrap;html=1;align=center;fontSize=16;" vertex="1" parent="1">
          <mxGeometry x="-190" y="-154" width="120" height="60" as="geometry" />
        </mxCell>
        <mxCell id="7-WOVS_3ObqrZkdHOqHh-46" value="hates" style="shape=rhombus;perimeter=rhombusPerimeter;whiteSpace=wrap;html=1;align=center;fontSize=16;" vertex="1" parent="1">
          <mxGeometry x="-190" y="-82" width="120" height="60" as="geometry" />
        </mxCell>
        <mxCell id="7-WOVS_3ObqrZkdHOqHh-47" style="edgeStyle=none;curved=1;rounded=0;orthogonalLoop=1;jettySize=auto;html=1;fontSize=12;startSize=8;endSize=8;endArrow=none;endFill=0;" edge="1" parent="1" source="B9fhIFzvkDU5wFezqFZm-11" target="7-WOVS_3ObqrZkdHOqHh-1">
          <mxGeometry relative="1" as="geometry">
            <mxPoint x="204" y="299" as="sourcePoint" />
            <mxPoint x="50" y="220" as="targetPoint" />
          </mxGeometry>
        </mxCell>
        <mxCell id="7-WOVS_3ObqrZkdHOqHh-48" style="edgeStyle=none;curved=1;rounded=0;orthogonalLoop=1;jettySize=auto;html=1;fontSize=12;startSize=8;endSize=8;endArrow=none;endFill=0;" edge="1" parent="1" source="B9fhIFzvkDU5wFezqFZm-9" target="7-WOVS_3ObqrZkdHOqHh-45">
          <mxGeometry relative="1" as="geometry">
            <mxPoint x="214" y="309" as="sourcePoint" />
            <mxPoint x="60" y="230" as="targetPoint" />
          </mxGeometry>
        </mxCell>
        <mxCell id="7-WOVS_3ObqrZkdHOqHh-49" style="edgeStyle=none;curved=1;rounded=0;orthogonalLoop=1;jettySize=auto;html=1;fontSize=12;startSize=8;endSize=8;endArrow=none;endFill=0;" edge="1" parent="1" source="B9fhIFzvkDU5wFezqFZm-13" target="7-WOVS_3ObqrZkdHOqHh-46">
          <mxGeometry relative="1" as="geometry">
            <mxPoint x="224" y="319" as="sourcePoint" />
            <mxPoint x="70" y="240" as="targetPoint" />
          </mxGeometry>
        </mxCell>
        <mxCell id="7-WOVS_3ObqrZkdHOqHh-51" value="" style="shape=link;html=1;rounded=0;fontSize=12;startSize=8;endSize=8;curved=1;" edge="1" parent="1" source="B9fhIFzvkDU5wFezqFZm-15" target="4-Pj_LEMFywbRyHF_7YG-1">
          <mxGeometry relative="1" as="geometry">
            <mxPoint x="-62.631578947368325" y="163.68421052631584" as="sourcePoint" />
            <mxPoint x="-119.33333333333326" y="270" as="targetPoint" />
          </mxGeometry>
        </mxCell>
        <mxCell id="7-WOVS_3ObqrZkdHOqHh-54" value="" style="shape=link;html=1;rounded=0;fontSize=12;startSize=8;endSize=8;curved=1;" edge="1" parent="1" source="B9fhIFzvkDU5wFezqFZm-23" target="7-WOVS_3ObqrZkdHOqHh-37">
          <mxGeometry relative="1" as="geometry">
            <mxPoint x="-524" y="220" as="sourcePoint" />
            <mxPoint x="-580" y="326" as="targetPoint" />
          </mxGeometry>
        </mxCell>
        <mxCell id="4-Pj_LEMFywbRyHF_7YG-1" value="courseoffer" style="shape=ext;margin=3;double=1;whiteSpace=wrap;html=1;align=center;fontSize=16;" vertex="1" parent="1">
          <mxGeometry x="-180" y="270" width="100" height="40" as="geometry" />
        </mxCell>
        <mxCell id="B9fhIFzvkDU5wFezqFZm-1" value="associate" style="shape=rhombus;double=1;perimeter=rhombusPerimeter;whiteSpace=wrap;html=1;align=center;" vertex="1" parent="1">
          <mxGeometry x="-100" y="80" width="120" height="60" as="geometry" />
        </mxCell>
        <mxCell id="B9fhIFzvkDU5wFezqFZm-2" value="" style="endArrow=none;html=1;rounded=0;" edge="1" parent="1" source="B9fhIFzvkDU5wFezqFZm-7" target="7-WOVS_3ObqrZkdHOqHh-1">
          <mxGeometry relative="1" as="geometry">
            <mxPoint x="140" y="120" as="sourcePoint" />
            <mxPoint x="160" y="20" as="targetPoint" />
          </mxGeometry>
        </mxCell>
        <mxCell id="B9fhIFzvkDU5wFezqFZm-8" value="" style="endArrow=none;html=1;rounded=0;" edge="1" parent="1" source="7-WOVS_3ObqrZkdHOqHh-45" target="B9fhIFzvkDU5wFezqFZm-7">
          <mxGeometry relative="1" as="geometry">
            <mxPoint x="-171" y="-114" as="sourcePoint" />
            <mxPoint x="-260" y="-94" as="targetPoint" />
          </mxGeometry>
        </mxCell>
        <mxCell id="B9fhIFzvkDU5wFezqFZm-7" value="M" style="text;html=1;strokeColor=none;fillColor=none;align=center;verticalAlign=middle;whiteSpace=wrap;rounded=0;" vertex="1" parent="1">
          <mxGeometry x="-230" y="-110" width="20" height="10" as="geometry" />
        </mxCell>
        <mxCell id="B9fhIFzvkDU5wFezqFZm-10" value="" style="edgeStyle=none;curved=1;rounded=0;orthogonalLoop=1;jettySize=auto;html=1;fontSize=12;startSize=8;endSize=8;endArrow=none;endFill=0;" edge="1" parent="1" source="7-WOVS_3ObqrZkdHOqHh-18" target="B9fhIFzvkDU5wFezqFZm-9">
          <mxGeometry relative="1" as="geometry">
            <mxPoint y="-94" as="sourcePoint" />
            <mxPoint x="-89" y="-114" as="targetPoint" />
          </mxGeometry>
        </mxCell>
        <mxCell id="B9fhIFzvkDU5wFezqFZm-9" value="M" style="text;html=1;strokeColor=none;fillColor=none;align=center;verticalAlign=middle;whiteSpace=wrap;rounded=0;" vertex="1" parent="1">
          <mxGeometry x="-60" y="-112" width="20" height="10" as="geometry" />
        </mxCell>
        <mxCell id="B9fhIFzvkDU5wFezqFZm-12" value="" style="edgeStyle=none;curved=1;rounded=0;orthogonalLoop=1;jettySize=auto;html=1;fontSize=12;startSize=8;endSize=8;endArrow=none;endFill=0;" edge="1" parent="1" source="7-WOVS_3ObqrZkdHOqHh-46" target="B9fhIFzvkDU5wFezqFZm-11">
          <mxGeometry relative="1" as="geometry">
            <mxPoint x="-175" y="-59" as="sourcePoint" />
            <mxPoint x="-260" y="-74" as="targetPoint" />
          </mxGeometry>
        </mxCell>
        <mxCell id="B9fhIFzvkDU5wFezqFZm-11" value="M" style="text;html=1;strokeColor=none;fillColor=none;align=center;verticalAlign=middle;whiteSpace=wrap;rounded=0;" vertex="1" parent="1">
          <mxGeometry x="-230" y="-72" width="20" height="10" as="geometry" />
        </mxCell>
        <mxCell id="B9fhIFzvkDU5wFezqFZm-14" value="" style="edgeStyle=none;curved=1;rounded=0;orthogonalLoop=1;jettySize=auto;html=1;fontSize=12;startSize=8;endSize=8;endArrow=none;endFill=0;" edge="1" parent="1" source="7-WOVS_3ObqrZkdHOqHh-18" target="B9fhIFzvkDU5wFezqFZm-13">
          <mxGeometry relative="1" as="geometry">
            <mxPoint y="-74" as="sourcePoint" />
            <mxPoint x="-85" y="-59" as="targetPoint" />
          </mxGeometry>
        </mxCell>
        <mxCell id="B9fhIFzvkDU5wFezqFZm-13" value="M" style="text;html=1;strokeColor=none;fillColor=none;align=center;verticalAlign=middle;whiteSpace=wrap;rounded=0;" vertex="1" parent="1">
          <mxGeometry x="-50" y="-72" width="20" height="10" as="geometry" />
        </mxCell>
        <mxCell id="B9fhIFzvkDU5wFezqFZm-16" value="" style="shape=link;html=1;rounded=0;fontSize=12;startSize=8;endSize=8;curved=1;" edge="1" parent="1" source="B9fhIFzvkDU5wFezqFZm-1" target="B9fhIFzvkDU5wFezqFZm-15">
          <mxGeometry relative="1" as="geometry">
            <mxPoint x="-63" y="164" as="sourcePoint" />
            <mxPoint x="-119" y="270" as="targetPoint" />
          </mxGeometry>
        </mxCell>
        <mxCell id="B9fhIFzvkDU5wFezqFZm-17" value="" style="resizable=0;html=1;whiteSpace=wrap;align=left;verticalAlign=bottom;fontSize=16;" connectable="0" vertex="1" parent="B9fhIFzvkDU5wFezqFZm-16">
          <mxGeometry x="-1" relative="1" as="geometry" />
        </mxCell>
        <mxCell id="B9fhIFzvkDU5wFezqFZm-15" value="M" style="text;html=1;strokeColor=none;fillColor=none;align=center;verticalAlign=middle;whiteSpace=wrap;rounded=0;" vertex="1" parent="1">
          <mxGeometry x="-100" y="220" width="20" height="10" as="geometry" />
        </mxCell>
        <mxCell id="B9fhIFzvkDU5wFezqFZm-24" value="" style="shape=link;html=1;rounded=0;fontSize=12;startSize=8;endSize=8;curved=1;" edge="1" parent="1" source="7-WOVS_3ObqrZkdHOqHh-1" target="B9fhIFzvkDU5wFezqFZm-23">
          <mxGeometry relative="1" as="geometry">
            <mxPoint x="-302" y="-62" as="sourcePoint" />
            <mxPoint x="-230" y="115" as="targetPoint" />
          </mxGeometry>
        </mxCell>
        <mxCell id="B9fhIFzvkDU5wFezqFZm-25" value="" style="resizable=0;html=1;whiteSpace=wrap;align=left;verticalAlign=bottom;fontSize=16;" connectable="0" vertex="1" parent="B9fhIFzvkDU5wFezqFZm-24">
          <mxGeometry x="-1" relative="1" as="geometry" />
        </mxCell>
        <mxCell id="B9fhIFzvkDU5wFezqFZm-23" value="M" style="text;html=1;strokeColor=none;fillColor=none;align=center;verticalAlign=middle;whiteSpace=wrap;rounded=0;" vertex="1" parent="1">
          <mxGeometry x="-280" y="20" width="20" height="10" as="geometry" />
        </mxCell>
        <mxCell id="B9fhIFzvkDU5wFezqFZm-27" value="" style="edgeStyle=none;curved=1;rounded=0;orthogonalLoop=1;jettySize=auto;html=1;fontSize=12;startSize=8;endSize=8;endArrow=none;endFill=0;" edge="1" parent="1" source="7-WOVS_3ObqrZkdHOqHh-18" target="B9fhIFzvkDU5wFezqFZm-26">
          <mxGeometry relative="1" as="geometry">
            <mxPoint x="41" y="-62" as="sourcePoint" />
            <mxPoint x="-39" y="116" as="targetPoint" />
          </mxGeometry>
        </mxCell>
        <mxCell id="B9fhIFzvkDU5wFezqFZm-26" value="1" style="text;html=1;strokeColor=none;fillColor=none;align=center;verticalAlign=middle;whiteSpace=wrap;rounded=0;" vertex="1" parent="1">
          <mxGeometry x="-10" y="20" width="20" height="10" as="geometry" />
        </mxCell>
        <mxCell id="B9fhIFzvkDU5wFezqFZm-30" value="" style="edgeStyle=none;curved=1;rounded=0;orthogonalLoop=1;jettySize=auto;html=1;fontSize=12;startSize=8;endSize=8;endArrow=none;endFill=0;" edge="1" parent="1" source="4-Pj_LEMFywbRyHF_7YG-1" target="B9fhIFzvkDU5wFezqFZm-22">
          <mxGeometry relative="1" as="geometry">
            <mxPoint x="-142" y="270" as="sourcePoint" />
            <mxPoint x="-206" y="163" as="targetPoint" />
          </mxGeometry>
        </mxCell>
        <mxCell id="B9fhIFzvkDU5wFezqFZm-22" value="1" style="text;html=1;strokeColor=none;fillColor=none;align=center;verticalAlign=middle;whiteSpace=wrap;rounded=0;" vertex="1" parent="1">
          <mxGeometry x="-180" y="220" width="20" height="10" as="geometry" />
        </mxCell>
        <mxCell id="hPMHq9-No1u515r_1J-B-1" value="degreetype" style="ellipse;whiteSpace=wrap;html=1;align=center;" vertex="1" parent="1">
          <mxGeometry x="-560" y="-160" width="100" height="40" as="geometry" />
        </mxCell>
      </root>
    </mxGraphModel>
  </diagram>
</mxfile>
